<mxfile host="app.diagrams.net" modified="2022-11-24T12:11:05.055Z" agent="5.0 (iPad; CPU OS 15_7 like Mac OS X) AppleWebKit/605.1.15 (KHTML, like Gecko) EdgiOS/107.0.1418.36 Version/15.0 Mobile/15E148 Safari/604.1" etag="bym3OZYeJ7LVhgNJ-c-_" version="20.5.3" type="github">
  <diagram id="Y8VD3bbsFug7fa-G-Edv" name="Page-1">
    <mxGraphModel dx="734" dy="883" grid="0" gridSize="10" guides="1" tooltips="1" connect="1" arrows="1" fold="1" page="0" pageScale="1" pageWidth="850" pageHeight="1100" math="0" shadow="0">
      <root>
        <mxCell id="0" />
        <mxCell id="1" parent="0" />
        <mxCell id="c3xup34KW6eh66UdVi6g-2" value="" style="shape=waypoint;sketch=0;size=6;pointerEvents=1;points=[];fillColor=none;resizable=0;rotatable=0;perimeter=centerPerimeter;snapToPoint=1;strokeColor=#BAC8D3;fontSize=16;fontColor=#EEEEEE;" vertex="1" parent="1">
          <mxGeometry x="147" y="463" width="40" height="40" as="geometry" />
        </mxCell>
        <mxCell id="c3xup34KW6eh66UdVi6g-5" value="+ field: type" style="text;strokeColor=none;fillColor=none;align=left;verticalAlign=top;spacingLeft=4;spacingRight=4;overflow=hidden;rotatable=0;points=[[0,0.5],[1,0.5]];portConstraint=eastwest;fontSize=16;fontColor=#EEEEEE;" vertex="1" parent="1">
          <mxGeometry x="349" y="505" width="160" height="26" as="geometry" />
        </mxCell>
        <mxCell id="c3xup34KW6eh66UdVi6g-12" value="Agent" style="swimlane;fontStyle=1;align=center;verticalAlign=top;childLayout=stackLayout;horizontal=1;startSize=26;horizontalStack=0;resizeParent=1;resizeParentMax=0;resizeLast=0;collapsible=1;marginBottom=0;strokeColor=#BAC8D3;fontSize=16;fontColor=#EEEEEE;fillColor=#09555B;" vertex="1" parent="1">
          <mxGeometry x="101" y="197" width="160" height="86" as="geometry" />
        </mxCell>
        <mxCell id="c3xup34KW6eh66UdVi6g-13" value="+ field: type" style="text;strokeColor=none;fillColor=none;align=left;verticalAlign=top;spacingLeft=4;spacingRight=4;overflow=hidden;rotatable=0;points=[[0,0.5],[1,0.5]];portConstraint=eastwest;fontSize=16;fontColor=#EEEEEE;" vertex="1" parent="c3xup34KW6eh66UdVi6g-12">
          <mxGeometry y="26" width="160" height="26" as="geometry" />
        </mxCell>
        <mxCell id="c3xup34KW6eh66UdVi6g-14" value="" style="line;strokeWidth=1;fillColor=none;align=left;verticalAlign=middle;spacingTop=-1;spacingLeft=3;spacingRight=3;rotatable=0;labelPosition=right;points=[];portConstraint=eastwest;strokeColor=inherit;fontSize=16;fontColor=#EEEEEE;" vertex="1" parent="c3xup34KW6eh66UdVi6g-12">
          <mxGeometry y="52" width="160" height="8" as="geometry" />
        </mxCell>
        <mxCell id="c3xup34KW6eh66UdVi6g-15" value="+ method(type): type" style="text;strokeColor=none;fillColor=none;align=left;verticalAlign=top;spacingLeft=4;spacingRight=4;overflow=hidden;rotatable=0;points=[[0,0.5],[1,0.5]];portConstraint=eastwest;fontSize=16;fontColor=#EEEEEE;" vertex="1" parent="c3xup34KW6eh66UdVi6g-12">
          <mxGeometry y="60" width="160" height="26" as="geometry" />
        </mxCell>
        <mxCell id="c3xup34KW6eh66UdVi6g-21" value="Client" style="swimlane;fontStyle=1;align=center;verticalAlign=top;childLayout=stackLayout;horizontal=1;startSize=26;horizontalStack=0;resizeParent=1;resizeParentMax=0;resizeLast=0;collapsible=1;marginBottom=0;strokeColor=#BAC8D3;fontSize=16;fontColor=#EEEEEE;fillColor=#09555B;" vertex="1" parent="1">
          <mxGeometry x="105" y="302" width="160" height="86" as="geometry" />
        </mxCell>
        <mxCell id="c3xup34KW6eh66UdVi6g-22" value="+ field: type" style="text;strokeColor=none;fillColor=none;align=left;verticalAlign=top;spacingLeft=4;spacingRight=4;overflow=hidden;rotatable=0;points=[[0,0.5],[1,0.5]];portConstraint=eastwest;fontSize=16;fontColor=#EEEEEE;" vertex="1" parent="c3xup34KW6eh66UdVi6g-21">
          <mxGeometry y="26" width="160" height="26" as="geometry" />
        </mxCell>
        <mxCell id="c3xup34KW6eh66UdVi6g-23" value="" style="line;strokeWidth=1;fillColor=none;align=left;verticalAlign=middle;spacingTop=-1;spacingLeft=3;spacingRight=3;rotatable=0;labelPosition=right;points=[];portConstraint=eastwest;strokeColor=inherit;fontSize=16;fontColor=#EEEEEE;" vertex="1" parent="c3xup34KW6eh66UdVi6g-21">
          <mxGeometry y="52" width="160" height="8" as="geometry" />
        </mxCell>
        <mxCell id="c3xup34KW6eh66UdVi6g-24" value="+ method(type): type" style="text;strokeColor=none;fillColor=none;align=left;verticalAlign=top;spacingLeft=4;spacingRight=4;overflow=hidden;rotatable=0;points=[[0,0.5],[1,0.5]];portConstraint=eastwest;fontSize=16;fontColor=#EEEEEE;" vertex="1" parent="c3xup34KW6eh66UdVi6g-21">
          <mxGeometry y="60" width="160" height="26" as="geometry" />
        </mxCell>
        <mxCell id="c3xup34KW6eh66UdVi6g-25" value="Client" style="swimlane;fontStyle=1;align=center;verticalAlign=top;childLayout=stackLayout;horizontal=1;startSize=26;horizontalStack=0;resizeParent=1;resizeParentMax=0;resizeLast=0;collapsible=1;marginBottom=0;strokeColor=#BAC8D3;fontSize=16;fontColor=#EEEEEE;fillColor=#09555B;" vertex="1" parent="1">
          <mxGeometry x="110" y="409" width="160" height="86" as="geometry" />
        </mxCell>
        <mxCell id="c3xup34KW6eh66UdVi6g-26" value="+ field: type" style="text;strokeColor=none;fillColor=none;align=left;verticalAlign=top;spacingLeft=4;spacingRight=4;overflow=hidden;rotatable=0;points=[[0,0.5],[1,0.5]];portConstraint=eastwest;fontSize=16;fontColor=#EEEEEE;" vertex="1" parent="c3xup34KW6eh66UdVi6g-25">
          <mxGeometry y="26" width="160" height="26" as="geometry" />
        </mxCell>
        <mxCell id="c3xup34KW6eh66UdVi6g-27" value="" style="line;strokeWidth=1;fillColor=none;align=left;verticalAlign=middle;spacingTop=-1;spacingLeft=3;spacingRight=3;rotatable=0;labelPosition=right;points=[];portConstraint=eastwest;strokeColor=inherit;fontSize=16;fontColor=#EEEEEE;" vertex="1" parent="c3xup34KW6eh66UdVi6g-25">
          <mxGeometry y="52" width="160" height="8" as="geometry" />
        </mxCell>
        <mxCell id="c3xup34KW6eh66UdVi6g-28" value="+ method(type): type" style="text;strokeColor=none;fillColor=none;align=left;verticalAlign=top;spacingLeft=4;spacingRight=4;overflow=hidden;rotatable=0;points=[[0,0.5],[1,0.5]];portConstraint=eastwest;fontSize=16;fontColor=#EEEEEE;" vertex="1" parent="c3xup34KW6eh66UdVi6g-25">
          <mxGeometry y="60" width="160" height="26" as="geometry" />
        </mxCell>
      </root>
    </mxGraphModel>
  </diagram>
</mxfile>
